<svg width="266" height="268" viewBox="0 0 266 268" fill="none" xmlns="http://www.w3.org/2000/svg">
<g clip-path="url(#clip0_3_179)">
<path d="M197.733 59.6076L195.787 57.9456C195.516 57.7142 186.238 55.4768 174.429 69.3025L99.0716 157.53C95.3979 161.832 87.0582 173.15 80.9054 183.197C74.7525 193.244 68.3504 206.356 68.0979 207.068C67.8454 207.78 68.4673 208.311 68.7983 208.594C69.1293 208.876 69.7462 209.403 70.415 209.047C71.0838 208.69 83.0271 200.303 91.9892 192.664C100.951 185.025 110.825 175.008 114.499 170.707L189.856 82.4791C201.665 68.6534 197.999 59.8347 197.733 59.6076Z" fill="url(#paint0_linear_3_179)"/>
<path d="M137.267 92.5208L138.123 91.5182C137.933 91.3039 137.549 90.8804 138.575 89.3032C139.334 88.1305 136.16 85.7229 135.538 85.1917C134.916 84.6606 132.041 81.902 131.007 82.8391C129.6 84.1 129.101 83.8118 128.885 83.6276L128.029 84.6302L127.622 84.2832L126.278 85.8573C126.278 85.8573 126.848 86.5094 126.373 87.0659C125.898 87.6223 122.392 91.9196 121.604 93.6652C121.09 94.8267 120.806 96.0766 120.767 97.3462C121.564 98.1046 122.401 98.8196 123.275 99.4881C124.072 100.246 124.909 100.961 125.783 101.63C127.031 101.393 128.221 100.917 129.288 100.228C130.913 99.1976 134.585 95.0417 135.06 94.4852C135.535 93.9288 136.268 94.3904 136.268 94.3904L137.609 92.8214L137.267 92.5208Z" fill="url(#paint1_linear_3_179)"/>
<path d="M138.15 91.4974L128.906 83.6026L128.033 84.6252L137.276 92.5201L138.15 91.4974Z" fill="url(#paint2_linear_3_179)"/>
<path d="M137.669 92.8728L127.618 84.2883L126.274 85.8623L136.324 94.4469L137.669 92.8728Z" fill="url(#paint3_linear_3_179)"/>
<path d="M78.3536 101.73C78.3264 101.763 78.2928 101.791 78.2548 101.811C78.2168 101.831 78.1751 101.843 78.1323 101.847C78.0895 101.851 78.0463 101.846 78.0054 101.833C77.9644 101.82 77.9265 101.799 77.8938 101.771C77.8273 101.714 77.7861 101.633 77.7792 101.546C77.7723 101.459 77.8003 101.373 77.8571 101.306L80.8115 97.8472C80.8682 97.7807 80.9491 97.7395 81.0363 97.7327C81.1235 97.7258 81.2098 97.7539 81.2763 97.8107C81.3408 97.8681 81.3803 97.9485 81.3862 98.0346C81.3921 98.1207 81.364 98.2057 81.308 98.2713L78.3536 101.73Z" fill="url(#paint4_linear_3_179)"/>
<path d="M97.0395 110.208C97.0123 110.241 96.9787 110.269 96.9407 110.289C96.9027 110.309 96.8611 110.321 96.8182 110.325C96.7754 110.329 96.7322 110.324 96.6913 110.311C96.6503 110.298 96.6124 110.277 96.5797 110.249C96.5132 110.192 96.472 110.111 96.4651 110.024C96.4582 109.937 96.4862 109.85 96.543 109.784L99.4974 106.325C99.5253 106.292 99.5594 106.265 99.5978 106.246C99.6362 106.227 99.6781 106.215 99.721 106.212C99.7639 106.21 99.8069 106.215 99.8476 106.229C99.8883 106.243 99.9258 106.265 99.9579 106.293C100.023 106.349 100.064 106.428 100.07 106.514C100.077 106.599 100.05 106.684 99.9939 106.749L97.0395 110.208Z" fill="url(#paint5_linear_3_179)"/>
<path d="M112.618 119.439C112.562 119.506 112.481 119.547 112.394 119.554C112.306 119.561 112.22 119.533 112.154 119.476C112.121 119.448 112.094 119.414 112.075 119.375C112.055 119.337 112.044 119.295 112.041 119.252C112.038 119.209 112.044 119.166 112.058 119.125C112.071 119.085 112.093 119.047 112.122 119.015L115.059 115.576C115.115 115.511 115.194 115.471 115.279 115.464C115.365 115.457 115.449 115.485 115.515 115.541C115.548 115.568 115.575 115.601 115.596 115.639C115.616 115.677 115.628 115.719 115.632 115.762C115.636 115.805 115.631 115.848 115.618 115.889C115.605 115.93 115.584 115.968 115.556 116L112.618 119.439Z" fill="url(#paint6_linear_3_179)"/>
<path d="M145.832 102.784C141.924 101.874 67.399 83.114 64.8844 82.5442C62.3698 81.9744 57.5455 82.423 54.8609 85.5661L52.4247 88.4185C52.4247 88.4185 69.5654 94.9783 75.3133 97.1653C81.0612 99.3523 96.7833 106.486 106.176 110.946C110.37 112.941 115.396 117.234 118.124 119.564L125.878 126.187L145.832 102.784Z" fill="url(#paint7_linear_3_179)"/>
<path d="M120.642 118.819C117.784 116.378 112.513 111.875 108.115 109.784C98.2446 105.09 81.7473 97.6147 75.7488 95.3351C70.9515 93.5179 58.518 88.759 53.7092 86.9146L52.4247 88.4185C52.4247 88.4185 69.5654 94.9783 75.3133 97.1653C81.0612 99.3523 96.7832 106.486 106.176 110.946C110.37 112.941 115.396 117.234 118.124 119.564L125.878 126.187L127.308 124.512L120.642 118.819Z" fill="#A8A8A8"/>
<path d="M58.1851 88.6308L59.6066 86.9665L73.3869 92.0172L71.8241 93.847L58.1851 88.6308Z" fill="#888A8C"/>
<path d="M64.8844 82.5442C62.3691 81.9651 57.5455 82.423 54.8609 85.5661L53.8719 86.7241C56.5565 83.581 61.38 83.1231 63.8953 83.7022C66.4106 84.2813 140.935 103.032 144.843 103.942L145.832 102.784C141.924 101.874 67.3789 83.0969 64.8844 82.5442Z" fill="url(#paint8_linear_3_179)"/>
<path d="M80.9225 183.177C80.9225 183.177 63.1152 179.906 57.888 179.516C52.6608 179.126 49.9355 179.443 48.5954 181.012L45.8423 184.235L73.3673 196.613L80.9225 183.177Z" fill="url(#paint9_linear_3_179)"/>
<path opacity="0.6" d="M48.6349 184.358C48.3071 184.589 47.9749 184.826 47.6556 185.047L73.3565 196.595L75.9994 191.916C71.3958 190.004 61.4233 185.908 57.7776 184.815C52.9568 183.411 50.3277 183.168 48.6349 184.358Z" fill="#707070"/>
<path d="M48.6476 181.733C49.9877 180.164 52.6979 179.834 57.9352 180.233C62.6974 180.598 77.8257 183.35 80.5575 183.827L80.9225 183.177C80.9225 183.177 63.1152 179.906 57.888 179.516C52.6608 179.126 49.9355 179.443 48.5954 181.012L45.8423 184.235L46.337 184.459L48.6476 181.733Z" fill="url(#paint10_linear_3_179)"/>
<path d="M191.909 64.4563L193.407 62.7017C192.648 62.1029 191.773 61.6658 190.838 61.4174C189.903 61.169 188.927 61.1145 187.971 61.2573L186.481 63.0019C187.437 62.8616 188.411 62.9183 189.345 63.1684C190.278 63.4185 191.151 63.8568 191.909 64.4563Z" fill="#000002"/>
<path d="M186.705 61.4595C186.113 61.5851 185.529 61.7465 184.957 61.9428L183.454 63.7023C184.027 63.5027 184.613 63.3396 185.207 63.2141L186.705 61.4595Z" fill="#000002"/>
<path d="M181.633 63.4476L180.13 65.2071C180.71 64.8764 181.306 64.5752 181.916 64.3047L183.414 62.5502C182.806 62.8189 182.211 63.1185 181.633 63.4476Z" fill="#000002"/>
<path d="M169.615 77.7106C169.517 77.8263 169.376 77.898 169.224 77.9099C169.072 77.9218 168.922 77.8729 168.806 77.7741C168.748 77.7254 168.7 77.6657 168.665 77.5984C168.63 77.5311 168.609 77.4575 168.602 77.3818C168.596 77.3062 168.605 77.2301 168.628 77.1578C168.651 77.0856 168.688 77.0187 168.738 76.961L169.251 76.3594C169.301 76.3017 169.361 76.2544 169.429 76.2201C169.496 76.1859 169.57 76.1654 169.646 76.1599C169.722 76.1544 169.798 76.164 169.87 76.1881C169.942 76.2122 170.008 76.2503 170.065 76.3003C170.181 76.3991 170.253 76.5399 170.265 76.6915C170.277 76.8432 170.228 76.9934 170.129 77.1091L169.615 77.7106Z" fill="#000004"/>
<path d="M167.676 79.9815C167.577 80.0972 167.436 80.1689 167.285 80.1808C167.133 80.1927 166.983 80.1438 166.867 80.045C166.809 79.9963 166.761 79.9366 166.725 79.8693C166.69 79.802 166.669 79.7283 166.663 79.6527C166.656 79.5771 166.665 79.5009 166.688 79.4287C166.711 79.3565 166.749 79.2896 166.798 79.2319L167.316 78.6253C167.365 78.5676 167.426 78.5203 167.493 78.486C167.561 78.4518 167.635 78.4313 167.711 78.4258C167.786 78.4203 167.862 78.4299 167.934 78.454C168.006 78.4781 168.073 78.5162 168.13 78.5661C168.246 78.665 168.317 78.8057 168.329 78.9574C168.341 79.1091 168.293 79.2593 168.194 79.375L167.676 79.9815Z" fill="#000004"/>
<path d="M165.74 82.2474C165.642 82.363 165.501 82.4347 165.349 82.4466C165.198 82.4585 165.047 82.4097 164.932 82.3108C164.873 82.2622 164.825 82.2025 164.79 82.1351C164.755 82.0678 164.734 81.9942 164.727 81.9186C164.721 81.8429 164.73 81.7668 164.753 81.6946C164.776 81.6223 164.813 81.5554 164.863 81.4977L165.377 80.8962C165.426 80.8385 165.486 80.7911 165.554 80.7569C165.621 80.7226 165.695 80.7022 165.771 80.6967C165.847 80.6912 165.923 80.7007 165.995 80.7248C166.067 80.7489 166.133 80.7871 166.19 80.837C166.306 80.9359 166.378 81.0766 166.39 81.2283C166.402 81.38 166.353 81.5302 166.254 81.6458L165.74 82.2474Z" fill="#000004"/>
<path d="M163.801 84.5182C163.702 84.6339 163.561 84.7056 163.41 84.7175C163.258 84.7294 163.108 84.6805 162.992 84.5817C162.934 84.533 162.886 84.4733 162.851 84.406C162.816 84.3387 162.794 84.265 162.788 84.1894C162.781 84.1138 162.79 84.0377 162.813 83.9654C162.837 83.8932 162.874 83.8263 162.923 83.7686L163.42 83.1871C163.469 83.1284 163.529 83.0801 163.597 83.045C163.665 83.0099 163.739 82.9888 163.815 82.9828C163.892 82.9768 163.968 82.9861 164.041 83.0102C164.113 83.0342 164.18 83.0726 164.238 83.1229C164.296 83.1722 164.343 83.2325 164.377 83.3002C164.412 83.3679 164.432 83.4418 164.438 83.5175C164.443 83.5932 164.434 83.6692 164.41 83.7412C164.386 83.8131 164.347 83.8796 164.298 83.9367L163.801 84.5182Z" fill="#000004"/>
<path d="M161.866 86.7841C161.817 86.8423 161.757 86.8904 161.69 86.9254C161.623 86.9604 161.549 86.9817 161.473 86.9881C161.398 86.9945 161.322 86.9858 161.249 86.9625C161.177 86.9392 161.11 86.9019 161.052 86.8525C160.994 86.8036 160.945 86.7433 160.91 86.6754C160.875 86.6075 160.854 86.5332 160.848 86.457C160.842 86.3808 160.851 86.3041 160.875 86.2316C160.899 86.159 160.938 86.092 160.988 86.0344L161.502 85.4329C161.551 85.3752 161.611 85.3278 161.679 85.2936C161.747 85.2593 161.82 85.2389 161.896 85.2334C161.972 85.2279 162.048 85.2374 162.12 85.2615C162.192 85.2856 162.258 85.3238 162.316 85.3737C162.431 85.4726 162.503 85.6133 162.515 85.765C162.527 85.9167 162.478 86.0669 162.379 86.1825L161.866 86.7841Z" fill="#000004"/>
<path d="M159.926 89.0549C159.827 89.1706 159.686 89.2423 159.535 89.2542C159.383 89.2661 159.233 89.2172 159.117 89.1184C159.059 89.0698 159.011 89.01 158.976 88.9427C158.941 88.8754 158.919 88.8018 158.913 88.7261C158.906 88.6505 158.915 88.5744 158.938 88.5021C158.962 88.4299 158.999 88.363 159.048 88.3053L159.566 87.6987C159.616 87.641 159.676 87.5937 159.744 87.5594C159.811 87.5252 159.885 87.5047 159.961 87.4992C160.037 87.4937 160.113 87.5033 160.185 87.5274C160.257 87.5515 160.323 87.5896 160.38 87.6396C160.496 87.7384 160.568 87.8792 160.58 88.0308C160.592 88.1825 160.543 88.3327 160.444 88.4484L159.926 89.0549Z" fill="#000004"/>
<path d="M157.986 91.3258C157.888 91.4415 157.747 91.5132 157.595 91.5251C157.443 91.5369 157.293 91.4881 157.178 91.3893C157.119 91.3406 157.071 91.2809 157.036 91.2136C157.001 91.1462 156.98 91.0726 156.973 90.997C156.967 90.9214 156.976 90.8452 156.999 90.773C157.022 90.7008 157.059 90.6339 157.109 90.5762L157.627 89.9696C157.676 89.9119 157.736 89.8646 157.804 89.8303C157.872 89.7961 157.946 89.7756 158.021 89.7701C158.097 89.7646 158.173 89.7742 158.245 89.7983C158.317 89.8223 158.383 89.8605 158.441 89.9104C158.556 90.0093 158.628 90.15 158.64 90.3017C158.652 90.4534 158.603 90.6036 158.504 90.7192L157.986 91.3258Z" fill="#000004"/>
<path d="M156.051 93.5917C155.952 93.7078 155.811 93.7801 155.659 93.793C155.506 93.8058 155.355 93.7581 155.238 93.6601C155.121 93.5602 155.048 93.4178 155.036 93.2644C155.024 93.111 155.073 92.959 155.173 92.842L155.687 92.2405C155.736 92.1828 155.797 92.1354 155.864 92.1012C155.932 92.0669 156.006 92.0465 156.082 92.041C156.157 92.0355 156.233 92.045 156.305 92.0691C156.377 92.0932 156.444 92.1314 156.501 92.1813C156.617 92.2802 156.688 92.4209 156.7 92.5726C156.712 92.7243 156.664 92.8745 156.565 92.9901L156.051 93.5917Z" fill="#000004"/>
<path d="M154.111 95.8626C154.013 95.9782 153.872 96.0499 153.72 96.0618C153.569 96.0737 153.418 96.0248 153.303 95.926C153.244 95.8774 153.196 95.8177 153.161 95.7503C153.126 95.683 153.105 95.6094 153.098 95.5338C153.092 95.4581 153.101 95.382 153.124 95.3097C153.147 95.2375 153.184 95.1706 153.234 95.1129L153.748 94.5114C153.797 94.4527 153.857 94.4044 153.925 94.3693C153.993 94.3342 154.067 94.313 154.143 94.3071C154.219 94.3011 154.296 94.3104 154.368 94.3345C154.441 94.3585 154.508 94.3968 154.566 94.4472C154.623 94.4965 154.671 94.5567 154.705 94.6245C154.739 94.6922 154.76 94.766 154.765 94.8417C154.771 94.9174 154.761 94.9935 154.737 95.0654C154.713 95.1374 154.675 95.2039 154.625 95.261L154.111 95.8626Z" fill="#000004"/>
<path d="M152.172 98.1334C152.073 98.2491 151.932 98.3207 151.781 98.3326C151.629 98.3445 151.479 98.2957 151.363 98.1969C151.305 98.1482 151.257 98.0885 151.222 98.0212C151.187 97.9538 151.165 97.8802 151.159 97.8046C151.152 97.729 151.161 97.6528 151.184 97.5806C151.208 97.5084 151.245 97.4415 151.294 97.3838L151.812 96.7772C151.861 96.7195 151.922 96.6721 151.989 96.6379C152.057 96.6037 152.131 96.5832 152.207 96.5777C152.282 96.5722 152.358 96.5818 152.43 96.6058C152.502 96.6299 152.569 96.6681 152.626 96.718C152.742 96.8169 152.814 96.9576 152.826 97.1093C152.837 97.261 152.789 97.4112 152.69 97.5268L152.172 98.1334Z" fill="#000004"/>
<path d="M150.237 100.399C150.138 100.515 149.997 100.587 149.845 100.599C149.694 100.61 149.543 100.562 149.428 100.463C149.369 100.414 149.321 100.354 149.286 100.287C149.251 100.22 149.23 100.146 149.223 100.07C149.217 99.9948 149.226 99.9187 149.249 99.8465C149.272 99.7742 149.31 99.7073 149.359 99.6496L149.873 99.0481C149.922 98.9904 149.982 98.943 150.05 98.9088C150.118 98.8745 150.191 98.8541 150.267 98.8486C150.343 98.8431 150.419 98.8526 150.491 98.8767C150.563 98.9008 150.629 98.9389 150.687 98.9889C150.802 99.0877 150.874 99.2285 150.886 99.3802C150.898 99.5319 150.849 99.682 150.75 99.7977L150.237 100.399Z" fill="#000004"/>
<path d="M148.297 102.67C148.198 102.786 148.057 102.857 147.906 102.869C147.754 102.881 147.604 102.832 147.488 102.734C147.43 102.685 147.382 102.625 147.347 102.558C147.312 102.491 147.29 102.417 147.284 102.341C147.277 102.266 147.286 102.19 147.309 102.117C147.333 102.045 147.37 101.978 147.419 101.921L147.937 101.314C147.987 101.256 148.047 101.209 148.115 101.175C148.182 101.14 148.256 101.12 148.332 101.114C148.408 101.109 148.484 101.118 148.556 101.143C148.628 101.167 148.694 101.205 148.751 101.255C148.867 101.354 148.939 101.494 148.951 101.646C148.963 101.798 148.914 101.948 148.815 102.064L148.297 102.67Z" fill="#000004"/>
<path d="M146.362 104.936C146.313 104.994 146.253 105.042 146.186 105.077C146.119 105.112 146.045 105.134 145.969 105.14C145.894 105.146 145.818 105.138 145.745 105.114C145.673 105.091 145.606 105.054 145.549 105.004C145.49 104.955 145.441 104.895 145.406 104.827C145.371 104.759 145.35 104.685 145.344 104.609C145.338 104.533 145.347 104.456 145.371 104.383C145.395 104.311 145.434 104.244 145.484 104.186L145.998 103.585C146.047 103.527 146.107 103.48 146.175 103.446C146.243 103.411 146.317 103.391 146.392 103.385C146.468 103.38 146.544 103.389 146.616 103.413C146.688 103.438 146.754 103.476 146.812 103.526C146.927 103.624 146.999 103.765 147.011 103.917C147.023 104.069 146.974 104.219 146.875 104.334L146.362 104.936Z" fill="#000004"/>
<path d="M144.422 107.207C144.323 107.323 144.183 107.394 144.031 107.406C143.879 107.418 143.729 107.369 143.613 107.27C143.555 107.222 143.507 107.162 143.472 107.095C143.437 107.027 143.415 106.954 143.409 106.878C143.403 106.802 143.411 106.726 143.434 106.654C143.458 106.582 143.495 106.515 143.544 106.457L144.058 105.856C144.107 105.797 144.167 105.749 144.235 105.714C144.303 105.678 144.377 105.657 144.454 105.651C144.53 105.645 144.607 105.655 144.679 105.679C144.752 105.703 144.819 105.741 144.876 105.791C144.934 105.841 144.981 105.901 145.016 105.969C145.05 106.036 145.07 106.11 145.076 106.186C145.082 106.262 145.072 106.338 145.048 106.41C145.024 106.482 144.986 106.548 144.936 106.605L144.422 107.207Z" fill="#000004"/>
<path d="M142.461 109.503C142.362 109.618 142.222 109.69 142.07 109.702C141.918 109.714 141.768 109.665 141.652 109.566C141.594 109.518 141.546 109.458 141.511 109.391C141.476 109.323 141.454 109.25 141.448 109.174C141.442 109.098 141.45 109.022 141.473 108.95C141.497 108.878 141.534 108.811 141.583 108.753L142.101 108.147C142.151 108.089 142.211 108.042 142.279 108.007C142.346 107.973 142.42 107.953 142.496 107.947C142.572 107.942 142.648 107.951 142.72 107.975C142.792 107.999 142.858 108.037 142.915 108.087C143.031 108.186 143.103 108.327 143.115 108.479C143.127 108.63 143.078 108.781 142.979 108.896L142.461 109.503Z" fill="#000004"/>
<path d="M140.547 111.744C140.498 111.801 140.438 111.848 140.371 111.882C140.304 111.916 140.231 111.937 140.156 111.943C140.081 111.949 140.005 111.94 139.934 111.916C139.862 111.893 139.796 111.856 139.738 111.807C139.68 111.758 139.632 111.699 139.597 111.631C139.562 111.564 139.54 111.49 139.534 111.415C139.528 111.339 139.536 111.263 139.56 111.191C139.583 111.119 139.62 111.052 139.669 110.994L140.183 110.392C140.233 110.335 140.293 110.287 140.36 110.253C140.428 110.219 140.502 110.198 140.578 110.193C140.653 110.187 140.729 110.197 140.801 110.221C140.873 110.245 140.94 110.283 140.997 110.333C141.113 110.432 141.185 110.573 141.197 110.724C141.208 110.876 141.16 111.026 141.061 111.142L140.547 111.744Z" fill="#000004"/>
<path d="M138.608 114.014C138.509 114.13 138.368 114.202 138.216 114.214C138.065 114.226 137.914 114.177 137.799 114.078C137.74 114.029 137.692 113.97 137.657 113.902C137.622 113.835 137.601 113.761 137.594 113.686C137.588 113.61 137.597 113.534 137.62 113.462C137.643 113.389 137.681 113.322 137.73 113.265L138.248 112.658C138.297 112.601 138.357 112.553 138.425 112.519C138.493 112.485 138.567 112.464 138.642 112.459C138.718 112.453 138.794 112.463 138.866 112.487C138.938 112.511 139.005 112.549 139.062 112.599C139.178 112.698 139.249 112.839 139.261 112.99C139.273 113.142 139.224 113.292 139.126 113.408L138.608 114.014Z" fill="#000004"/>
<path d="M136.672 116.28C136.624 116.339 136.564 116.387 136.497 116.422C136.429 116.457 136.356 116.478 136.28 116.484C136.204 116.491 136.128 116.482 136.056 116.459C135.984 116.435 135.917 116.398 135.859 116.349C135.8 116.3 135.752 116.24 135.717 116.172C135.682 116.104 135.661 116.029 135.655 115.953C135.649 115.877 135.658 115.8 135.682 115.728C135.706 115.655 135.744 115.588 135.795 115.531L136.308 114.929C136.358 114.871 136.418 114.824 136.486 114.79C136.553 114.756 136.627 114.735 136.703 114.73C136.779 114.724 136.855 114.734 136.927 114.758C136.999 114.782 137.065 114.82 137.122 114.87C137.238 114.969 137.31 115.11 137.322 115.261C137.334 115.413 137.285 115.563 137.186 115.679L136.672 116.28Z" fill="#000004"/>
<path d="M134.733 118.551C134.634 118.667 134.493 118.739 134.341 118.75C134.19 118.762 134.04 118.713 133.924 118.615C133.866 118.566 133.817 118.506 133.782 118.439C133.747 118.372 133.726 118.298 133.72 118.222C133.713 118.147 133.722 118.071 133.745 117.998C133.768 117.926 133.806 117.859 133.855 117.802L134.369 117.2C134.418 117.142 134.478 117.095 134.546 117.061C134.614 117.026 134.688 117.006 134.763 117C134.839 116.995 134.915 117.005 134.987 117.029C135.059 117.053 135.125 117.091 135.183 117.141C135.298 117.24 135.37 117.38 135.382 117.532C135.394 117.684 135.345 117.834 135.246 117.95L134.733 118.551Z" fill="#000004"/>
<path d="M132.793 120.822C132.694 120.938 132.554 121.009 132.402 121.021C132.25 121.033 132.1 120.984 131.984 120.886C131.926 120.837 131.878 120.777 131.843 120.71C131.808 120.642 131.786 120.569 131.78 120.493C131.774 120.418 131.782 120.341 131.805 120.269C131.829 120.197 131.866 120.13 131.915 120.072L132.433 119.466C132.483 119.408 132.543 119.361 132.611 119.327C132.678 119.292 132.752 119.272 132.828 119.266C132.904 119.261 132.98 119.27 133.052 119.295C133.124 119.319 133.19 119.357 133.247 119.407C133.363 119.506 133.435 119.646 133.447 119.798C133.459 119.95 133.41 120.1 133.311 120.215L132.793 120.822Z" fill="#000004"/>
<path d="M130.858 123.088C130.759 123.204 130.618 123.275 130.467 123.287C130.315 123.299 130.165 123.25 130.049 123.151C129.991 123.103 129.943 123.043 129.907 122.976C129.872 122.908 129.851 122.835 129.845 122.759C129.838 122.683 129.847 122.607 129.87 122.535C129.893 122.463 129.931 122.396 129.98 122.338L130.494 121.737C130.543 121.679 130.603 121.632 130.671 121.597C130.739 121.563 130.813 121.543 130.888 121.537C130.964 121.532 131.04 121.541 131.112 121.565C131.184 121.589 131.251 121.628 131.308 121.678C131.423 121.776 131.495 121.917 131.507 122.069C131.519 122.22 131.47 122.371 131.372 122.486L130.858 123.088Z" fill="#000004"/>
<path d="M128.918 125.359C128.819 125.474 128.679 125.546 128.527 125.558C128.375 125.57 128.225 125.521 128.109 125.422C128.051 125.374 128.003 125.314 127.968 125.247C127.933 125.179 127.911 125.106 127.905 125.03C127.899 124.954 127.907 124.878 127.931 124.806C127.954 124.734 127.991 124.667 128.04 124.609L128.554 124.008C128.603 123.949 128.663 123.901 128.731 123.865C128.799 123.83 128.874 123.809 128.95 123.803C129.026 123.797 129.103 123.807 129.175 123.831C129.248 123.855 129.315 123.893 129.372 123.943C129.43 123.993 129.477 124.053 129.512 124.121C129.546 124.188 129.567 124.262 129.572 124.338C129.578 124.414 129.568 124.49 129.544 124.562C129.52 124.634 129.482 124.7 129.432 124.757L128.918 125.359Z" fill="#000004"/>
<path d="M126.983 127.625C126.934 127.683 126.875 127.731 126.807 127.766C126.74 127.801 126.666 127.822 126.591 127.829C126.515 127.835 126.439 127.826 126.367 127.803C126.294 127.78 126.227 127.742 126.17 127.693C126.111 127.644 126.063 127.584 126.028 127.516C125.992 127.448 125.971 127.374 125.965 127.298C125.959 127.221 125.968 127.145 125.993 127.072C126.017 127 126.055 126.933 126.105 126.875L126.598 126.298C126.647 126.241 126.707 126.193 126.775 126.159C126.842 126.125 126.916 126.104 126.992 126.099C127.068 126.093 127.144 126.103 127.216 126.127C127.288 126.151 127.354 126.189 127.411 126.239C127.527 126.338 127.599 126.479 127.611 126.631C127.623 126.782 127.574 126.932 127.475 127.048L126.983 127.625Z" fill="#000004"/>
<path d="M125.043 129.895C124.944 130.011 124.804 130.083 124.652 130.095C124.5 130.107 124.35 130.058 124.234 129.959C124.176 129.91 124.128 129.851 124.093 129.783C124.058 129.716 124.037 129.642 124.03 129.567C124.024 129.491 124.032 129.415 124.056 129.343C124.079 129.27 124.116 129.204 124.166 129.146L124.679 128.544C124.779 128.427 124.922 128.355 125.075 128.343C125.228 128.331 125.38 128.38 125.497 128.48C125.613 128.581 125.683 128.723 125.694 128.875C125.706 129.027 125.656 129.178 125.557 129.294L125.043 129.895Z" fill="#000004"/>
<path d="M123.104 132.166C123.005 132.282 122.864 132.354 122.712 132.366C122.561 132.377 122.411 132.329 122.295 132.23C122.236 132.181 122.188 132.121 122.153 132.054C122.118 131.987 122.097 131.913 122.091 131.838C122.084 131.762 122.093 131.686 122.116 131.614C122.139 131.541 122.177 131.474 122.226 131.417L122.744 130.81C122.793 130.752 122.854 130.705 122.921 130.671C122.989 130.637 123.063 130.616 123.139 130.611C123.214 130.605 123.29 130.615 123.362 130.639C123.434 130.663 123.501 130.701 123.558 130.751C123.674 130.85 123.745 130.991 123.757 131.142C123.769 131.294 123.72 131.444 123.622 131.56L123.104 132.166Z" fill="#000004"/>
<path d="M121.168 134.432C121.07 134.548 120.929 134.62 120.777 134.631C120.625 134.643 120.475 134.595 120.359 134.496C120.301 134.447 120.253 134.387 120.218 134.32C120.183 134.253 120.162 134.179 120.155 134.103C120.149 134.028 120.158 133.952 120.181 133.879C120.204 133.807 120.241 133.74 120.291 133.683L120.804 133.081C120.854 133.023 120.914 132.976 120.982 132.942C121.049 132.907 121.123 132.887 121.199 132.882C121.275 132.876 121.351 132.886 121.423 132.91C121.495 132.934 121.561 132.972 121.618 133.022C121.734 133.121 121.806 133.261 121.818 133.413C121.83 133.565 121.781 133.715 121.682 133.831L121.168 134.432Z" fill="#000004"/>
<path d="M119.229 136.703C119.13 136.819 118.989 136.89 118.838 136.902C118.686 136.914 118.536 136.865 118.42 136.767C118.362 136.718 118.314 136.658 118.279 136.591C118.243 136.524 118.222 136.45 118.216 136.374C118.209 136.299 118.218 136.223 118.241 136.15C118.264 136.078 118.302 136.011 118.351 135.953L118.865 135.352C118.914 135.293 118.974 135.245 119.042 135.21C119.11 135.175 119.184 135.154 119.26 135.148C119.337 135.142 119.413 135.151 119.486 135.175C119.558 135.199 119.625 135.237 119.683 135.288C119.741 135.337 119.788 135.397 119.822 135.465C119.857 135.533 119.877 135.607 119.883 135.682C119.888 135.758 119.879 135.834 119.855 135.906C119.831 135.978 119.792 136.044 119.743 136.102L119.229 136.703Z" fill="#000004"/>
<path d="M117.289 138.974C117.19 139.09 117.05 139.161 116.898 139.173C116.746 139.185 116.596 139.136 116.48 139.037C116.422 138.989 116.374 138.929 116.339 138.862C116.304 138.794 116.282 138.721 116.276 138.645C116.27 138.57 116.278 138.493 116.302 138.421C116.325 138.349 116.362 138.282 116.411 138.224L116.93 137.618C116.979 137.56 117.039 137.513 117.107 137.478C117.174 137.444 117.248 137.424 117.324 137.418C117.4 137.413 117.476 137.422 117.548 137.446C117.62 137.47 117.686 137.509 117.743 137.559C117.859 137.657 117.931 137.798 117.943 137.95C117.955 138.102 117.906 138.252 117.807 138.367L117.289 138.974Z" fill="#000004"/>
<path d="M115.354 141.24C115.255 141.355 115.114 141.427 114.963 141.439C114.811 141.451 114.661 141.402 114.545 141.303C114.487 141.255 114.439 141.195 114.404 141.128C114.369 141.06 114.347 140.987 114.341 140.911C114.334 140.835 114.343 140.759 114.366 140.687C114.39 140.615 114.427 140.548 114.476 140.49L114.99 139.889C115.039 139.831 115.099 139.784 115.167 139.749C115.235 139.715 115.309 139.695 115.384 139.689C115.46 139.684 115.536 139.693 115.608 139.717C115.68 139.741 115.747 139.779 115.804 139.829C115.92 139.928 115.991 140.069 116.003 140.221C116.015 140.372 115.966 140.523 115.868 140.638L115.354 141.24Z" fill="#000004"/>
<path d="M113.414 143.511C113.315 143.626 113.175 143.698 113.023 143.71C112.871 143.722 112.721 143.673 112.605 143.574C112.547 143.526 112.499 143.466 112.464 143.398C112.429 143.331 112.408 143.258 112.401 143.182C112.395 143.106 112.403 143.03 112.427 142.958C112.45 142.886 112.487 142.819 112.537 142.761L113.055 142.154C113.104 142.097 113.164 142.049 113.232 142.015C113.3 141.981 113.373 141.96 113.449 141.955C113.525 141.949 113.601 141.959 113.673 141.983C113.745 142.007 113.811 142.045 113.868 142.095C113.984 142.194 114.056 142.335 114.068 142.487C114.08 142.638 114.031 142.788 113.932 142.904L113.414 143.511Z" fill="#000004"/>
<path d="M111.479 145.777C111.43 145.834 111.37 145.881 111.303 145.915C111.236 145.949 111.163 145.97 111.088 145.976C111.013 145.982 110.937 145.973 110.865 145.949C110.794 145.926 110.727 145.889 110.67 145.84C110.612 145.791 110.564 145.732 110.529 145.664C110.494 145.597 110.472 145.523 110.466 145.448C110.459 145.372 110.468 145.296 110.491 145.224C110.515 145.151 110.552 145.085 110.601 145.027L111.115 144.425C111.164 144.368 111.225 144.32 111.292 144.286C111.36 144.252 111.434 144.231 111.51 144.226C111.585 144.22 111.661 144.23 111.733 144.254C111.805 144.278 111.872 144.316 111.929 144.366C112.045 144.465 112.116 144.606 112.128 144.757C112.14 144.909 112.092 145.059 111.993 145.175L111.479 145.777Z" fill="#000004"/>
<path d="M109.539 148.047C109.441 148.163 109.3 148.235 109.148 148.247C108.996 148.259 108.846 148.21 108.73 148.111C108.672 148.062 108.624 148.002 108.589 147.935C108.554 147.868 108.533 147.794 108.526 147.719C108.52 147.643 108.529 147.567 108.552 147.495C108.575 147.422 108.612 147.355 108.662 147.298L109.175 146.696C109.224 146.638 109.285 146.589 109.353 146.554C109.42 146.519 109.495 146.498 109.571 146.492C109.647 146.486 109.724 146.495 109.796 146.519C109.869 146.543 109.936 146.582 109.994 146.632C110.051 146.681 110.099 146.742 110.133 146.809C110.167 146.877 110.188 146.951 110.193 147.027C110.199 147.102 110.189 147.178 110.165 147.25C110.141 147.322 110.103 147.389 110.053 147.446L109.539 148.047Z" fill="#000004"/>
<path d="M107.604 150.313C107.555 150.372 107.496 150.42 107.428 150.455C107.361 150.49 107.287 150.511 107.212 150.517C107.136 150.524 107.06 150.515 106.988 150.492C106.916 150.468 106.849 150.431 106.791 150.382C106.732 150.333 106.684 150.273 106.649 150.205C106.614 150.137 106.592 150.062 106.586 149.986C106.58 149.91 106.59 149.833 106.614 149.761C106.638 149.688 106.676 149.621 106.726 149.564L107.24 148.962C107.289 148.904 107.35 148.857 107.417 148.823C107.485 148.789 107.559 148.768 107.635 148.763C107.71 148.757 107.786 148.767 107.858 148.791C107.93 148.815 107.997 148.853 108.054 148.903C108.17 149.002 108.241 149.142 108.253 149.294C108.265 149.446 108.217 149.596 108.118 149.712L107.604 150.313Z" fill="#000004"/>
<path d="M105.664 152.584C105.566 152.7 105.425 152.771 105.273 152.783C105.122 152.795 104.971 152.746 104.856 152.648C104.797 152.599 104.749 152.539 104.714 152.472C104.679 152.405 104.658 152.331 104.651 152.255C104.645 152.18 104.654 152.104 104.677 152.031C104.7 151.959 104.737 151.892 104.787 151.834L105.301 151.233C105.35 151.175 105.41 151.128 105.478 151.094C105.545 151.059 105.619 151.039 105.695 151.033C105.771 151.028 105.847 151.038 105.919 151.062C105.991 151.086 106.057 151.124 106.114 151.174C106.23 151.273 106.302 151.413 106.314 151.565C106.326 151.717 106.277 151.867 106.178 151.983L105.664 152.584Z" fill="#000004"/>
<path d="M103.725 154.855C103.626 154.971 103.485 155.042 103.334 155.054C103.182 155.066 103.032 155.017 102.916 154.918C102.858 154.87 102.81 154.81 102.775 154.743C102.74 154.675 102.718 154.602 102.712 154.526C102.705 154.451 102.714 154.374 102.737 154.302C102.761 154.23 102.798 154.163 102.847 154.105L103.365 153.499C103.415 153.441 103.475 153.394 103.542 153.36C103.61 153.325 103.684 153.305 103.76 153.299C103.835 153.294 103.911 153.303 103.983 153.327C104.055 153.352 104.122 153.39 104.179 153.44C104.295 153.538 104.367 153.679 104.379 153.831C104.39 153.983 104.342 154.133 104.243 154.248L103.725 154.855Z" fill="#000004"/>
<path d="M101.785 157.126C101.686 157.242 101.545 157.314 101.393 157.327C101.241 157.34 101.089 157.292 100.972 157.194C100.855 157.094 100.783 156.952 100.77 156.799C100.758 156.645 100.808 156.493 100.908 156.376L101.421 155.775C101.471 155.717 101.531 155.67 101.599 155.635C101.666 155.601 101.74 155.581 101.816 155.575C101.892 155.57 101.968 155.579 102.04 155.603C102.112 155.627 102.178 155.666 102.235 155.715C102.351 155.814 102.423 155.955 102.435 156.107C102.447 156.258 102.398 156.409 102.299 156.524L101.785 157.126Z" fill="#000004"/>
<path d="M99.8499 159.392C99.7511 159.507 99.6104 159.579 99.4587 159.591C99.307 159.603 99.1568 159.554 99.0411 159.455C98.9828 159.407 98.9347 159.347 98.8997 159.279C98.8646 159.212 98.8433 159.139 98.8369 159.063C98.8305 158.987 98.8392 158.911 98.8624 158.839C98.8856 158.767 98.923 158.7 98.9722 158.642L99.486 158.041C99.535 157.982 99.5952 157.934 99.6631 157.898C99.731 157.863 99.8053 157.842 99.8815 157.836C99.9577 157.83 100.034 157.84 100.107 157.864C100.18 157.888 100.247 157.926 100.304 157.976C100.362 158.026 100.409 158.086 100.444 158.154C100.478 158.221 100.498 158.295 100.504 158.371C100.509 158.447 100.5 158.523 100.476 158.595C100.452 158.667 100.414 158.733 100.364 158.79L99.8499 159.392Z" fill="#000004"/>
<path d="M97.9104 161.663C97.8116 161.778 97.6708 161.85 97.5192 161.862C97.3675 161.874 97.2172 161.825 97.1015 161.726C97.0432 161.677 96.9952 161.618 96.9601 161.55C96.9251 161.483 96.9037 161.409 96.8973 161.334C96.8909 161.258 96.8996 161.182 96.9228 161.11C96.946 161.038 96.9834 160.971 97.0327 160.913L97.5508 160.306C97.6 160.249 97.6603 160.201 97.728 160.167C97.7957 160.133 97.8695 160.112 97.9452 160.107C98.0209 160.101 98.097 160.111 98.169 160.135C98.241 160.159 98.3075 160.197 98.3646 160.247C98.4803 160.346 98.5521 160.487 98.564 160.638C98.576 160.79 98.5272 160.94 98.4284 161.056L97.9104 161.663Z" fill="#000004"/>
<path d="M95.975 163.928C95.8762 164.044 95.7355 164.116 95.5838 164.128C95.4321 164.14 95.2819 164.091 95.1662 163.992C95.1079 163.943 95.0598 163.884 95.0248 163.816C94.9897 163.749 94.9684 163.675 94.962 163.6C94.9556 163.524 94.9643 163.448 94.9875 163.376C95.0107 163.303 95.0481 163.237 95.0973 163.179L95.6111 162.577C95.6604 162.52 95.7207 162.472 95.7884 162.438C95.8561 162.404 95.9299 162.383 96.0056 162.378C96.0813 162.372 96.1574 162.382 96.2294 162.406C96.3013 162.43 96.3678 162.468 96.425 162.518C96.5407 162.617 96.6125 162.758 96.6244 162.909C96.6364 163.061 96.5876 163.211 96.4888 163.327L95.975 163.928Z" fill="#000004"/>
<path d="M94.0354 166.199C93.9366 166.315 93.7959 166.387 93.6442 166.399C93.4926 166.41 93.3423 166.362 93.2266 166.263C93.1683 166.214 93.1203 166.154 93.0852 166.087C93.0502 166.02 93.0288 165.946 93.0224 165.871C93.016 165.795 93.0247 165.719 93.0479 165.647C93.0711 165.574 93.1085 165.507 93.1578 165.45L93.6758 164.843C93.7251 164.785 93.7854 164.738 93.8531 164.704C93.9208 164.67 93.9946 164.649 94.0703 164.644C94.146 164.638 94.2221 164.648 94.2941 164.672C94.3661 164.696 94.4325 164.734 94.4897 164.784C94.6054 164.883 94.6772 165.024 94.6891 165.175C94.7011 165.327 94.6523 165.477 94.5535 165.593L94.0354 166.199Z" fill="#000004"/>
<path d="M172.73 122.811L173.587 121.808C173.828 121.962 174.311 122.28 175.709 121.02C176.743 120.083 179.623 122.845 180.244 123.377C180.866 123.908 184.04 126.315 183.277 127.484C182.246 129.066 182.614 129.519 182.83 129.703L181.973 130.706L182.375 131.048L181.03 132.622C181.03 132.622 180.302 132.165 179.827 132.722C179.351 133.278 175.655 137.412 174.024 138.438C172.959 139.127 171.771 139.605 170.524 139.845C169.651 139.176 168.814 138.461 168.017 137.703C167.143 137.034 166.306 136.32 165.509 135.561C165.545 134.291 165.829 133.041 166.346 131.88C167.104 130.109 170.615 125.816 171.09 125.259C171.565 124.703 170.995 124.051 170.995 124.051L172.335 122.482L172.73 122.811Z" fill="url(#paint11_linear_3_179)"/>
<path d="M182.851 129.678L173.608 121.783L172.734 122.806L181.978 130.701L182.851 129.678Z" fill="url(#paint12_linear_3_179)"/>
<path d="M182.375 131.058L172.325 122.473L170.98 124.047L181.031 132.632L182.375 131.058Z" fill="url(#paint13_linear_3_179)"/>
<path d="M172.828 182.422C172.771 182.489 172.743 182.575 172.75 182.662C172.756 182.749 172.798 182.83 172.864 182.887C172.897 182.915 172.935 182.936 172.976 182.949C173.017 182.962 173.06 182.967 173.103 182.963C173.146 182.959 173.187 182.947 173.225 182.927C173.263 182.907 173.297 182.879 173.324 182.846L176.278 179.387C176.334 179.322 176.363 179.237 176.357 179.151C176.351 179.065 176.311 178.984 176.247 178.927C176.18 178.87 176.094 178.842 176.007 178.849C175.92 178.856 175.839 178.897 175.782 178.963L172.828 182.422Z" fill="url(#paint14_linear_3_179)"/>
<path d="M161.552 165.309C161.495 165.376 161.467 165.462 161.474 165.549C161.481 165.636 161.522 165.717 161.588 165.774C161.621 165.802 161.659 165.823 161.7 165.836C161.741 165.849 161.784 165.854 161.827 165.85C161.87 165.846 161.911 165.834 161.949 165.814C161.987 165.794 162.021 165.766 162.048 165.733L165.003 162.274C165.058 162.209 165.086 162.125 165.079 162.039C165.072 161.954 165.032 161.874 164.967 161.819C164.901 161.763 164.816 161.735 164.73 161.74C164.644 161.746 164.563 161.786 164.506 161.85L161.552 165.309Z" fill="url(#paint15_linear_3_179)"/>
<path d="M150.003 151.37C149.974 151.402 149.952 151.44 149.938 151.48C149.924 151.521 149.919 151.564 149.922 151.607C149.925 151.65 149.936 151.692 149.956 151.73C149.975 151.768 150.002 151.803 150.034 151.83C150.101 151.887 150.187 151.915 150.274 151.909C150.362 151.902 150.442 151.86 150.499 151.794L153.436 148.355C153.464 148.322 153.485 148.285 153.499 148.244C153.512 148.203 153.516 148.159 153.513 148.117C153.509 148.074 153.496 148.032 153.476 147.994C153.456 147.956 153.429 147.923 153.395 147.895C153.33 147.84 153.246 147.812 153.16 147.819C153.075 147.826 152.996 147.866 152.94 147.931L150.003 151.37Z" fill="url(#paint16_linear_3_179)"/>
<path d="M161.259 115.961C162.768 119.677 192.953 190.352 193.909 192.747C194.865 195.141 195.176 199.976 192.492 203.119L190.056 205.972C190.056 205.972 180.891 190.063 177.837 184.733C174.783 179.402 165.278 164.989 159.404 156.409C156.777 152.578 151.752 148.286 149.024 145.956L141.285 139.346L161.259 115.961Z" fill="url(#paint17_linear_3_179)"/>
<path d="M149.355 143.343C152.219 145.789 157.49 150.292 160.244 154.308C166.423 163.323 176.382 178.444 179.576 184.016C182.121 188.47 188.766 200.007 191.34 204.468L190.056 205.972C190.056 205.972 180.891 190.063 177.837 184.733C174.783 179.402 165.278 164.989 159.404 156.409C156.777 152.578 151.752 148.286 149.024 145.956L141.285 139.346L142.715 137.672L149.355 143.343Z" fill="#A8A8A8"/>
<path d="M188.94 200.311L190.361 198.647L183.223 185.83L181.66 187.66L188.94 200.311Z" fill="#888A8C"/>
<path d="M193.909 192.747C194.869 195.136 195.176 199.976 192.492 203.119L191.503 204.277C194.187 201.134 193.88 196.294 192.92 193.905C191.96 191.515 161.801 120.82 160.27 117.119L161.259 115.961C162.773 119.682 192.953 190.352 193.909 192.747Z" fill="url(#paint18_linear_3_179)"/>
<path d="M92.0064 192.644C92.0064 192.644 98.0169 209.716 99.2344 214.831C100.452 219.946 100.545 222.67 99.2051 224.239L96.452 227.462L79.9223 202.212L92.0064 192.644Z" fill="url(#paint19_linear_3_179)"/>
<path opacity="0.6" d="M95.8894 224.719C95.712 225.079 95.5303 225.444 95.3615 225.794L79.9366 202.215L84.1494 198.877C86.7528 203.121 92.3629 212.334 94.0134 215.764C96.1439 220.298 96.7998 222.861 95.8894 224.719Z" fill="#707070"/>
<path d="M98.48 224.296C99.8201 222.727 99.7167 219.994 98.5042 214.884C97.4036 210.241 92.315 195.725 91.4208 193.106L92.0064 192.644C92.0064 192.644 98.0169 209.716 99.2344 214.831C100.452 219.946 100.545 222.67 99.2051 224.239L96.452 227.462L96.1593 227.013L98.48 224.296Z" fill="url(#paint20_linear_3_179)"/>
<path d="M191.909 64.4563L193.408 62.7017C194.117 63.3591 194.685 64.1544 195.077 65.039C195.468 65.9235 195.675 66.8786 195.684 67.8457L194.194 69.5902C194.183 68.6241 193.974 67.6706 193.581 66.7878C193.188 65.9051 192.619 65.1117 191.909 64.4563Z" fill="#000002"/>
<path d="M195.678 69.123C195.648 69.7288 195.581 70.3323 195.479 70.93L193.976 72.6895C194.082 72.0905 194.15 71.4853 194.179 70.8776L195.678 69.123Z" fill="#000002"/>
<path d="M194.512 74.4481L193.009 76.2077C193.257 75.5522 193.455 74.9239 193.626 74.2978L195.124 72.5433C194.958 73.1644 194.751 73.8026 194.512 74.4481Z" fill="#000002"/>
<path d="M182.304 88.5484C182.205 88.6641 182.157 88.8143 182.169 88.9659C182.18 89.1176 182.252 89.2584 182.368 89.3572C182.484 89.456 182.634 89.5049 182.786 89.493C182.937 89.4811 183.078 89.4094 183.177 89.2938L183.691 88.6922C183.789 88.5765 183.838 88.4263 183.826 88.2747C183.814 88.123 183.742 87.9822 183.627 87.8834C183.511 87.7845 183.361 87.7357 183.209 87.7476C183.057 87.7595 182.917 87.8312 182.818 87.9468L182.304 88.5484Z" fill="#000004"/>
<path d="M180.365 90.8192C180.266 90.9349 180.217 91.0851 180.229 91.2368C180.241 91.3885 180.313 91.5292 180.428 91.6281C180.544 91.7269 180.694 91.7757 180.846 91.7638C180.998 91.7519 181.138 91.6803 181.237 91.5646L181.755 90.958C181.854 90.8424 181.903 90.6922 181.891 90.5405C181.879 90.3888 181.807 90.2481 181.691 90.1492C181.576 90.0504 181.426 90.0015 181.274 90.0134C181.122 90.0253 180.981 90.097 180.883 90.2127L180.365 90.8192Z" fill="#000004"/>
<path d="M178.429 93.0851C178.33 93.2008 178.282 93.351 178.294 93.5027C178.306 93.6543 178.377 93.7951 178.493 93.8939C178.609 93.9928 178.759 94.0416 178.911 94.0297C179.062 94.0178 179.203 93.9461 179.302 93.8305L179.816 93.2289C179.914 93.1132 179.963 92.963 179.951 92.8114C179.939 92.6597 179.868 92.5189 179.752 92.4201C179.636 92.3213 179.486 92.2724 179.334 92.2843C179.183 92.2962 179.042 92.3679 178.943 92.4836L178.429 93.0851Z" fill="#000004"/>
<path d="M176.49 95.356C176.391 95.4716 176.342 95.6218 176.354 95.7735C176.366 95.9252 176.438 96.0659 176.553 96.1648C176.669 96.2636 176.819 96.3125 176.971 96.3006C177.123 96.2887 177.264 96.217 177.362 96.1013L177.859 95.5198C177.909 95.4627 177.947 95.3962 177.971 95.3243C177.995 95.2523 178.005 95.1763 177.999 95.1006C177.994 95.0249 177.973 94.951 177.939 94.8833C177.905 94.8156 177.857 94.7553 177.799 94.706C177.742 94.6567 177.675 94.6193 177.603 94.5961C177.53 94.5728 177.454 94.5641 177.378 94.5705C177.303 94.5768 177.229 94.5982 177.162 94.6332C177.095 94.6682 177.035 94.7162 176.986 94.7745L176.49 95.356Z" fill="#000004"/>
<path d="M174.554 97.6218C174.504 97.679 174.466 97.7454 174.442 97.8174C174.418 97.8894 174.409 97.9654 174.414 98.0411C174.42 98.1168 174.44 98.1907 174.474 98.2584C174.509 98.3261 174.556 98.3864 174.614 98.4357C174.672 98.485 174.739 98.5223 174.811 98.5456C174.883 98.5689 174.959 98.5776 175.035 98.5712C175.11 98.5648 175.184 98.5435 175.251 98.5085C175.319 98.4735 175.378 98.4255 175.427 98.3672L175.941 97.7657C176.04 97.65 176.088 97.4998 176.076 97.3481C176.064 97.1964 175.993 97.0557 175.877 96.9568C175.761 96.858 175.611 96.8092 175.459 96.8211C175.308 96.833 175.167 96.9046 175.068 97.0203L174.554 97.6218Z" fill="#000004"/>
<path d="M172.615 99.8927C172.516 100.008 172.467 100.159 172.479 100.31C172.491 100.462 172.563 100.603 172.679 100.702C172.794 100.8 172.945 100.849 173.096 100.837C173.248 100.825 173.389 100.754 173.487 100.638L174.005 100.031C174.104 99.9158 174.153 99.7656 174.141 99.614C174.129 99.4623 174.057 99.3215 173.942 99.2227C173.826 99.1238 173.676 99.075 173.524 99.0869C173.372 99.0988 173.232 99.1705 173.133 99.2861L172.615 99.8927Z" fill="#000004"/>
<path d="M170.675 102.164C170.576 102.279 170.528 102.429 170.54 102.581C170.551 102.733 170.623 102.874 170.739 102.972C170.855 103.071 171.005 103.12 171.157 103.108C171.308 103.096 171.449 103.025 171.548 102.909L172.066 102.302C172.165 102.187 172.213 102.037 172.201 101.885C172.19 101.733 172.118 101.592 172.002 101.494C171.886 101.395 171.736 101.346 171.584 101.358C171.433 101.37 171.292 101.441 171.193 101.557L170.675 102.164Z" fill="#000004"/>
<path d="M168.74 104.429C168.641 104.546 168.591 104.696 168.602 104.848C168.614 105.001 168.684 105.143 168.799 105.243C168.917 105.341 169.068 105.389 169.22 105.376C169.372 105.363 169.513 105.291 169.612 105.175L170.126 104.573C170.225 104.458 170.274 104.307 170.262 104.156C170.25 104.004 170.178 103.863 170.062 103.764C169.947 103.666 169.797 103.617 169.645 103.629C169.493 103.641 169.352 103.712 169.254 103.828L168.74 104.429Z" fill="#000004"/>
<path d="M166.8 106.7C166.701 106.816 166.653 106.966 166.665 107.118C166.677 107.27 166.748 107.41 166.864 107.509C166.98 107.608 167.13 107.657 167.282 107.645C167.433 107.633 167.574 107.561 167.673 107.446L168.187 106.844C168.237 106.787 168.275 106.721 168.299 106.649C168.323 106.577 168.332 106.501 168.327 106.425C168.321 106.349 168.301 106.275 168.267 106.208C168.232 106.14 168.185 106.08 168.127 106.03C168.069 105.981 168.003 105.944 167.93 105.92C167.858 105.897 167.782 105.888 167.706 105.895C167.631 105.901 167.557 105.922 167.49 105.957C167.422 105.992 167.363 106.04 167.314 106.099L166.8 106.7Z" fill="#000004"/>
<path d="M164.861 108.971C164.762 109.087 164.713 109.237 164.725 109.389C164.737 109.54 164.809 109.681 164.924 109.78C165.04 109.879 165.19 109.928 165.342 109.916C165.494 109.904 165.635 109.832 165.733 109.717L166.251 109.11C166.35 108.994 166.399 108.844 166.387 108.692C166.375 108.541 166.303 108.4 166.188 108.301C166.072 108.202 165.922 108.153 165.77 108.165C165.618 108.177 165.478 108.249 165.379 108.365L164.861 108.971Z" fill="#000004"/>
<path d="M162.925 111.237C162.827 111.353 162.778 111.503 162.79 111.655C162.802 111.806 162.873 111.947 162.989 112.046C163.105 112.145 163.255 112.194 163.407 112.182C163.558 112.17 163.699 112.098 163.798 111.982L164.312 111.381C164.411 111.265 164.459 111.115 164.447 110.963C164.435 110.812 164.364 110.671 164.248 110.572C164.132 110.473 163.982 110.424 163.83 110.436C163.679 110.448 163.538 110.52 163.439 110.635L162.925 111.237Z" fill="#000004"/>
<path d="M160.986 113.508C160.887 113.624 160.838 113.774 160.85 113.925C160.862 114.077 160.934 114.218 161.05 114.317C161.165 114.416 161.316 114.464 161.467 114.453C161.619 114.441 161.76 114.369 161.858 114.253L162.376 113.647C162.475 113.531 162.524 113.381 162.512 113.229C162.5 113.077 162.428 112.937 162.313 112.838C162.197 112.739 162.047 112.69 161.895 112.702C161.743 112.714 161.603 112.786 161.504 112.901L160.986 113.508Z" fill="#000004"/>
<path d="M159.05 115.774C159 115.831 158.962 115.897 158.938 115.969C158.914 116.041 158.905 116.117 158.91 116.193C158.916 116.269 158.936 116.343 158.971 116.41C159.005 116.478 159.052 116.538 159.11 116.588C159.168 116.637 159.235 116.674 159.307 116.698C159.379 116.721 159.455 116.729 159.531 116.723C159.607 116.717 159.68 116.695 159.747 116.66C159.815 116.625 159.874 116.577 159.923 116.519L160.437 115.918C160.536 115.802 160.584 115.652 160.573 115.5C160.561 115.348 160.489 115.208 160.373 115.109C160.257 115.01 160.107 114.961 159.955 114.973C159.804 114.985 159.663 115.057 159.564 115.172L159.05 115.774Z" fill="#000004"/>
<path d="M157.111 118.045C157.012 118.16 156.963 118.31 156.975 118.462C156.987 118.614 157.059 118.755 157.175 118.853C157.29 118.952 157.441 119.001 157.592 118.989C157.744 118.977 157.885 118.906 157.983 118.79L158.497 118.188C158.547 118.131 158.585 118.065 158.609 117.993C158.633 117.921 158.643 117.845 158.637 117.769C158.632 117.693 158.611 117.62 158.577 117.552C158.543 117.484 158.495 117.424 158.438 117.375C158.38 117.325 158.313 117.288 158.241 117.265C158.169 117.241 158.092 117.233 158.017 117.239C157.941 117.245 157.868 117.267 157.8 117.302C157.733 117.337 157.673 117.385 157.625 117.443L157.111 118.045Z" fill="#000004"/>
<path d="M155.15 120.341C155.051 120.456 155.002 120.606 155.014 120.758C155.026 120.91 155.098 121.051 155.214 121.149C155.329 121.248 155.48 121.297 155.631 121.285C155.783 121.273 155.924 121.202 156.022 121.086L156.541 120.479C156.639 120.364 156.688 120.213 156.676 120.062C156.664 119.91 156.592 119.769 156.477 119.671C156.361 119.572 156.211 119.523 156.059 119.535C155.907 119.547 155.767 119.618 155.668 119.734L155.15 120.341Z" fill="#000004"/>
<path d="M153.236 122.581C153.187 122.639 153.15 122.705 153.127 122.777C153.103 122.848 153.094 122.924 153.1 122.999C153.106 123.074 153.127 123.147 153.161 123.214C153.195 123.281 153.242 123.341 153.3 123.39C153.357 123.439 153.423 123.476 153.495 123.5C153.567 123.523 153.642 123.532 153.717 123.526C153.792 123.52 153.866 123.499 153.933 123.465C154 123.431 154.06 123.384 154.109 123.327L154.622 122.725C154.721 122.609 154.77 122.459 154.758 122.308C154.746 122.156 154.674 122.015 154.559 121.916C154.443 121.818 154.293 121.769 154.141 121.781C153.989 121.792 153.849 121.864 153.75 121.98L153.236 122.581Z" fill="#000004"/>
<path d="M151.296 124.852C151.198 124.968 151.149 125.118 151.161 125.27C151.173 125.421 151.244 125.562 151.36 125.661C151.476 125.76 151.626 125.809 151.778 125.797C151.929 125.785 152.07 125.713 152.169 125.598L152.687 124.991C152.786 124.875 152.835 124.725 152.823 124.573C152.811 124.422 152.739 124.281 152.623 124.182C152.508 124.083 152.357 124.035 152.206 124.046C152.054 124.058 151.913 124.13 151.814 124.246L151.296 124.852Z" fill="#000004"/>
<path d="M149.361 127.118C149.311 127.175 149.273 127.242 149.249 127.314C149.225 127.386 149.215 127.462 149.221 127.537C149.226 127.613 149.247 127.687 149.281 127.755C149.315 127.822 149.363 127.883 149.421 127.932C149.478 127.981 149.545 128.019 149.617 128.042C149.69 128.065 149.766 128.074 149.841 128.067C149.917 128.061 149.991 128.04 150.058 128.005C150.125 127.97 150.185 127.922 150.234 127.863L150.747 127.262C150.846 127.146 150.895 126.996 150.883 126.844C150.871 126.693 150.799 126.552 150.684 126.453C150.568 126.354 150.418 126.305 150.266 126.317C150.114 126.329 149.974 126.401 149.875 126.517L149.361 127.118Z" fill="#000004"/>
<path d="M147.421 129.389C147.323 129.505 147.274 129.655 147.286 129.806C147.298 129.958 147.37 130.099 147.485 130.198C147.601 130.297 147.751 130.345 147.903 130.334C148.055 130.322 148.195 130.25 148.294 130.134L148.808 129.533C148.907 129.417 148.955 129.267 148.944 129.115C148.932 128.964 148.86 128.823 148.744 128.724C148.628 128.625 148.478 128.576 148.326 128.588C148.175 128.6 148.034 128.672 147.935 128.787L147.421 129.389Z" fill="#000004"/>
<path d="M145.482 131.66C145.383 131.775 145.334 131.926 145.346 132.077C145.358 132.229 145.43 132.37 145.546 132.469C145.661 132.567 145.812 132.616 145.963 132.604C146.115 132.592 146.256 132.521 146.354 132.405L146.873 131.799C146.971 131.683 147.02 131.533 147.008 131.381C146.996 131.229 146.924 131.089 146.809 130.99C146.693 130.891 146.543 130.842 146.391 130.854C146.239 130.866 146.099 130.938 146 131.053L145.482 131.66Z" fill="#000004"/>
<path d="M143.547 133.926C143.448 134.041 143.399 134.192 143.411 134.343C143.423 134.495 143.495 134.636 143.61 134.734C143.726 134.833 143.876 134.882 144.028 134.87C144.18 134.858 144.32 134.787 144.419 134.671L144.933 134.069C145.032 133.954 145.081 133.804 145.069 133.652C145.057 133.5 144.985 133.359 144.869 133.261C144.753 133.162 144.603 133.113 144.452 133.125C144.3 133.137 144.159 133.208 144.06 133.324L143.547 133.926Z" fill="#000004"/>
<path d="M141.607 136.197C141.508 136.312 141.459 136.462 141.471 136.614C141.483 136.766 141.555 136.906 141.671 137.005C141.786 137.104 141.937 137.153 142.088 137.141C142.24 137.129 142.381 137.058 142.48 136.942L142.993 136.34C143.043 136.283 143.081 136.217 143.106 136.145C143.13 136.073 143.139 135.997 143.134 135.921C143.128 135.845 143.108 135.772 143.073 135.704C143.039 135.636 142.992 135.576 142.934 135.527C142.876 135.477 142.809 135.44 142.737 135.417C142.665 135.393 142.589 135.385 142.513 135.391C142.437 135.397 142.364 135.419 142.296 135.454C142.229 135.489 142.169 135.537 142.121 135.595L141.607 136.197Z" fill="#000004"/>
<path d="M139.672 138.462C139.622 138.52 139.584 138.586 139.56 138.658C139.535 138.73 139.526 138.806 139.531 138.882C139.537 138.957 139.557 139.031 139.592 139.099C139.626 139.167 139.673 139.227 139.731 139.276C139.789 139.326 139.856 139.363 139.928 139.386C140 139.409 140.076 139.418 140.152 139.412C140.228 139.405 140.301 139.384 140.369 139.349C140.436 139.314 140.496 139.266 140.544 139.208L141.037 138.631C141.135 138.516 141.184 138.365 141.172 138.214C141.16 138.062 141.089 137.921 140.973 137.822C140.857 137.724 140.707 137.675 140.555 137.687C140.404 137.699 140.263 137.77 140.164 137.886L139.672 138.462Z" fill="#000004"/>
<path d="M137.732 140.733C137.633 140.849 137.584 140.999 137.596 141.151C137.608 141.302 137.68 141.443 137.796 141.542C137.912 141.641 138.062 141.69 138.214 141.678C138.365 141.666 138.506 141.594 138.605 141.479L139.119 140.877C139.218 140.761 139.267 140.61 139.256 140.458C139.245 140.306 139.174 140.164 139.059 140.063C138.942 139.965 138.79 139.918 138.638 139.93C138.486 139.943 138.345 140.016 138.246 140.132L137.732 140.733Z" fill="#000004"/>
<path d="M135.792 143.004C135.694 143.12 135.645 143.27 135.657 143.422C135.669 143.573 135.741 143.714 135.856 143.813C135.972 143.912 136.122 143.961 136.274 143.949C136.426 143.937 136.566 143.865 136.665 143.749L137.183 143.143C137.282 143.027 137.331 142.877 137.319 142.725C137.307 142.574 137.235 142.433 137.119 142.334C137.004 142.235 136.853 142.186 136.702 142.198C136.55 142.21 136.409 142.282 136.311 142.398L135.792 143.004Z" fill="#000004"/>
<path d="M133.857 145.27C133.758 145.386 133.71 145.536 133.722 145.688C133.733 145.839 133.805 145.98 133.921 146.079C134.037 146.178 134.187 146.226 134.339 146.215C134.49 146.203 134.631 146.131 134.73 146.015L135.244 145.414C135.342 145.298 135.391 145.148 135.379 144.996C135.367 144.845 135.295 144.704 135.18 144.605C135.064 144.506 134.914 144.457 134.762 144.469C134.61 144.481 134.47 144.553 134.371 144.668L133.857 145.27Z" fill="#000004"/>
<path d="M131.918 147.541C131.819 147.656 131.77 147.807 131.782 147.958C131.794 148.11 131.866 148.251 131.981 148.35C132.097 148.448 132.247 148.497 132.399 148.485C132.551 148.474 132.691 148.402 132.79 148.286L133.304 147.685C133.354 147.628 133.392 147.561 133.416 147.489C133.44 147.417 133.45 147.341 133.444 147.265C133.439 147.19 133.418 147.116 133.384 147.048C133.35 146.98 133.302 146.92 133.244 146.871C133.187 146.822 133.12 146.784 133.048 146.761C132.975 146.738 132.899 146.729 132.824 146.735C132.748 146.742 132.674 146.763 132.607 146.798C132.54 146.833 132.48 146.881 132.431 146.939L131.918 147.541Z" fill="#000004"/>
<path d="M129.978 149.812C129.879 149.927 129.83 150.078 129.842 150.229C129.854 150.381 129.926 150.522 130.042 150.621C130.157 150.719 130.308 150.768 130.459 150.756C130.611 150.744 130.752 150.673 130.851 150.557L131.369 149.951C131.467 149.835 131.516 149.685 131.504 149.533C131.492 149.381 131.421 149.241 131.305 149.142C131.189 149.043 131.039 148.994 130.887 149.006C130.736 149.018 130.595 149.089 130.496 149.205L129.978 149.812Z" fill="#000004"/>
<path d="M128.043 152.078C127.944 152.193 127.895 152.343 127.907 152.495C127.919 152.647 127.991 152.788 128.106 152.886C128.222 152.985 128.372 153.034 128.524 153.022C128.676 153.01 128.817 152.939 128.915 152.823L129.429 152.221C129.528 152.106 129.577 151.956 129.565 151.804C129.553 151.652 129.481 151.511 129.365 151.413C129.25 151.314 129.099 151.265 128.948 151.277C128.796 151.289 128.655 151.36 128.556 151.476L128.043 152.078Z" fill="#000004"/>
<path d="M126.103 154.348C126.004 154.464 125.955 154.614 125.967 154.766C125.979 154.918 126.051 155.058 126.167 155.157C126.283 155.256 126.433 155.305 126.585 155.293C126.736 155.281 126.877 155.209 126.976 155.094L127.494 154.487C127.593 154.372 127.641 154.221 127.629 154.07C127.617 153.918 127.546 153.777 127.43 153.678C127.314 153.58 127.164 153.531 127.012 153.543C126.861 153.555 126.72 153.626 126.621 153.742L126.103 154.348Z" fill="#000004"/>
<path d="M124.168 156.614C124.119 156.672 124.082 156.738 124.058 156.81C124.035 156.881 124.026 156.957 124.032 157.032C124.038 157.107 124.059 157.18 124.093 157.247C124.127 157.314 124.174 157.374 124.232 157.423C124.289 157.472 124.355 157.509 124.427 157.533C124.499 157.556 124.574 157.565 124.649 157.559C124.724 157.553 124.797 157.532 124.865 157.498C124.932 157.464 124.991 157.417 125.04 157.36L125.554 156.758C125.653 156.642 125.702 156.492 125.69 156.341C125.678 156.189 125.606 156.048 125.49 155.949C125.375 155.85 125.224 155.802 125.073 155.813C124.921 155.825 124.78 155.897 124.682 156.013L124.168 156.614Z" fill="#000004"/>
<path d="M122.228 158.885C122.129 159.001 122.081 159.151 122.093 159.303C122.104 159.454 122.176 159.595 122.292 159.694C122.408 159.793 122.558 159.842 122.71 159.83C122.861 159.818 123.002 159.746 123.101 159.631L123.615 159.029C123.665 158.972 123.703 158.905 123.727 158.833C123.751 158.761 123.76 158.685 123.755 158.61C123.749 158.534 123.729 158.46 123.694 158.392C123.66 158.325 123.613 158.264 123.555 158.215C123.497 158.166 123.43 158.128 123.358 158.105C123.286 158.082 123.21 158.073 123.134 158.08C123.058 158.086 122.985 158.107 122.918 158.142C122.85 158.177 122.791 158.225 122.742 158.284L122.228 158.885Z" fill="#000004"/>
<path d="M120.293 161.151C120.243 161.208 120.205 161.275 120.181 161.347C120.157 161.419 120.147 161.495 120.153 161.57C120.158 161.646 120.179 161.72 120.213 161.788C120.247 161.855 120.295 161.916 120.352 161.965C120.41 162.014 120.477 162.052 120.549 162.075C120.622 162.098 120.698 162.107 120.773 162.1C120.849 162.094 120.923 162.073 120.99 162.038C121.057 162.003 121.117 161.955 121.166 161.896L121.679 161.295C121.778 161.179 121.827 161.029 121.815 160.877C121.803 160.726 121.731 160.585 121.615 160.486C121.5 160.387 121.35 160.338 121.198 160.35C121.046 160.362 120.905 160.434 120.807 160.549L120.293 161.151Z" fill="#000004"/>
<path d="M118.353 163.422C118.254 163.538 118.206 163.688 118.218 163.839C118.23 163.991 118.301 164.132 118.417 164.231C118.533 164.33 118.683 164.378 118.835 164.366C118.986 164.355 119.127 164.283 119.226 164.167L119.74 163.566C119.838 163.45 119.887 163.3 119.875 163.148C119.863 162.996 119.792 162.856 119.676 162.757C119.56 162.658 119.41 162.609 119.258 162.621C119.107 162.633 118.966 162.705 118.867 162.82L118.353 163.422Z" fill="#000004"/>
<path d="M116.414 165.693C116.315 165.808 116.266 165.959 116.278 166.11C116.29 166.262 116.362 166.403 116.477 166.502C116.593 166.6 116.743 166.649 116.895 166.637C117.047 166.625 117.188 166.554 117.286 166.438L117.804 165.832C117.903 165.716 117.952 165.566 117.94 165.414C117.928 165.262 117.856 165.122 117.741 165.023C117.625 164.924 117.475 164.875 117.323 164.887C117.171 164.899 117.031 164.971 116.932 165.086L116.414 165.693Z" fill="#000004"/>
<path d="M114.474 167.964C114.375 168.08 114.325 168.23 114.337 168.383C114.348 168.535 114.419 168.677 114.534 168.777C114.651 168.875 114.802 168.923 114.954 168.91C115.107 168.897 115.248 168.825 115.347 168.709L115.861 168.107C115.959 167.992 116.008 167.842 115.996 167.69C115.984 167.538 115.912 167.397 115.797 167.299C115.681 167.2 115.531 167.151 115.379 167.163C115.227 167.175 115.087 167.246 114.988 167.362L114.474 167.964Z" fill="#000004"/>
<path d="M112.539 170.229C112.44 170.345 112.391 170.495 112.403 170.647C112.415 170.799 112.487 170.939 112.603 171.038C112.718 171.137 112.869 171.186 113.02 171.174C113.172 171.162 113.313 171.091 113.411 170.975L113.925 170.373C113.975 170.316 114.013 170.25 114.037 170.178C114.061 170.106 114.071 170.03 114.065 169.954C114.06 169.878 114.039 169.804 114.005 169.737C113.971 169.669 113.923 169.609 113.866 169.559C113.808 169.51 113.741 169.473 113.669 169.45C113.596 169.426 113.52 169.418 113.445 169.424C113.369 169.43 113.295 169.452 113.228 169.487C113.161 169.522 113.101 169.57 113.053 169.628L112.539 170.229Z" fill="#000004"/>
<path d="M110.599 172.5C110.5 172.616 110.452 172.766 110.464 172.918C110.476 173.07 110.547 173.21 110.663 173.309C110.779 173.408 110.929 173.457 111.081 173.445C111.232 173.433 111.373 173.361 111.472 173.246L111.99 172.639C112.089 172.523 112.137 172.373 112.125 172.222C112.114 172.07 112.042 171.929 111.926 171.83C111.81 171.731 111.66 171.683 111.508 171.695C111.357 171.706 111.216 171.778 111.117 171.894L110.599 172.5Z" fill="#000004"/>
<path d="M108.664 174.766C108.565 174.882 108.516 175.032 108.528 175.184C108.54 175.335 108.612 175.476 108.728 175.575C108.843 175.674 108.994 175.723 109.145 175.711C109.297 175.699 109.438 175.627 109.537 175.512L110.05 174.91C110.149 174.794 110.198 174.644 110.186 174.492C110.174 174.341 110.102 174.2 109.986 174.101C109.871 174.002 109.721 173.954 109.569 173.965C109.417 173.977 109.276 174.049 109.178 174.165L108.664 174.766Z" fill="#000004"/>
<path d="M106.724 177.037C106.625 177.153 106.577 177.303 106.589 177.455C106.601 177.606 106.672 177.747 106.788 177.846C106.904 177.945 107.054 177.994 107.206 177.982C107.357 177.97 107.498 177.898 107.597 177.782L108.115 177.176C108.214 177.06 108.263 176.91 108.251 176.758C108.239 176.607 108.167 176.466 108.051 176.367C107.935 176.268 107.785 176.219 107.634 176.231C107.482 176.243 107.341 176.315 107.242 176.43L106.724 177.037Z" fill="#000004"/>
</g>
<defs>
<linearGradient id="paint0_linear_3_179" x1="125.074" y1="127.087" x2="140.501" y2="140.263" gradientUnits="userSpaceOnUse">
<stop stop-color="#625F5F"/>
<stop offset="0.01" stop-color="#6A6767"/>
<stop offset="0.1" stop-color="#979595"/>
<stop offset="0.19" stop-color="#BCBBBB"/>
<stop offset="0.27" stop-color="#D9D8D8"/>
<stop offset="0.36" stop-color="#EDEDED"/>
<stop offset="0.44" stop-color="#FAFAFA"/>
<stop offset="0.52" stop-color="#FEFEFE"/>
<stop offset="0.63" stop-color="#FAFAFA"/>
<stop offset="0.76" stop-color="#EDEDEE"/>
<stop offset="0.88" stop-color="#D8D9DA"/>
<stop offset="1" stop-color="#BDBEC0"/>
</linearGradient>
<linearGradient id="paint1_linear_3_179" x1="124.394" y1="88.063" x2="134.445" y2="96.6475" gradientUnits="userSpaceOnUse">
<stop stop-color="#787575"/>
<stop offset="0.49" stop-color="#E8E7E7"/>
<stop offset="0.56" stop-color="#E2E1E1"/>
<stop offset="0.66" stop-color="#D0CFCF"/>
<stop offset="0.77" stop-color="#B3B1B1"/>
<stop offset="0.89" stop-color="#8B8888"/>
<stop offset="1" stop-color="#625F5F"/>
</linearGradient>
<linearGradient id="paint2_linear_3_179" x1="128.465" y1="84.1189" x2="137.703" y2="92.0095" gradientUnits="userSpaceOnUse">
<stop stop-color="#949292"/>
<stop offset="0.49" stop-color="#E8E7E7"/>
<stop offset="0.59" stop-color="#E2E1E1"/>
<stop offset="0.73" stop-color="#D0CFCF"/>
<stop offset="0.89" stop-color="#B3B1B1"/>
<stop offset="1" stop-color="#9B9999"/>
</linearGradient>
<linearGradient id="paint3_linear_3_179" x1="126.946" y1="85.0753" x2="136.996" y2="93.6598" gradientUnits="userSpaceOnUse">
<stop stop-color="#989696"/>
<stop offset="0.49" stop-color="#E8E7E7"/>
</linearGradient>
<linearGradient id="paint4_linear_3_179" x1="79.8559" y1="100.022" x2="79.3694" y2="99.6066" gradientUnits="userSpaceOnUse">
<stop stop-color="#625F5F"/>
<stop offset="0.02" stop-color="#6C6A6A"/>
<stop offset="0.09" stop-color="#858485"/>
<stop offset="0.17" stop-color="#9A999B"/>
<stop offset="0.27" stop-color="#AAAAAC"/>
<stop offset="0.38" stop-color="#B5B6B7"/>
<stop offset="0.55" stop-color="#BBBCBE"/>
<stop offset="1" stop-color="#BDBEC0"/>
</linearGradient>
<linearGradient id="paint5_linear_3_179" x1="98.5217" y1="108.483" x2="98.0352" y2="108.067" gradientUnits="userSpaceOnUse">
<stop stop-color="#625F5F"/>
<stop offset="0.02" stop-color="#6C6A6A"/>
<stop offset="0.09" stop-color="#858485"/>
<stop offset="0.17" stop-color="#9A999B"/>
<stop offset="0.27" stop-color="#AAAAAC"/>
<stop offset="0.38" stop-color="#B5B6B7"/>
<stop offset="0.55" stop-color="#BBBCBE"/>
<stop offset="1" stop-color="#BDBEC0"/>
</linearGradient>
<linearGradient id="paint6_linear_3_179" x1="114.101" y1="117.714" x2="113.614" y2="117.299" gradientUnits="userSpaceOnUse">
<stop stop-color="#625F5F"/>
<stop offset="0.02" stop-color="#6C6A6A"/>
<stop offset="0.09" stop-color="#858485"/>
<stop offset="0.17" stop-color="#9A999B"/>
<stop offset="0.27" stop-color="#AAAAAC"/>
<stop offset="0.38" stop-color="#B5B6B7"/>
<stop offset="0.55" stop-color="#BBBCBE"/>
<stop offset="1" stop-color="#BDBEC0"/>
</linearGradient>
<linearGradient id="paint7_linear_3_179" x1="130.363" y1="122.275" x2="70.3999" y2="71.0596" gradientUnits="userSpaceOnUse">
<stop stop-color="#625F5F"/>
<stop offset="0.02" stop-color="#6C6A6A"/>
<stop offset="0.09" stop-color="#858485"/>
<stop offset="0.17" stop-color="#9A999B"/>
<stop offset="0.27" stop-color="#AAAAAC"/>
<stop offset="0.38" stop-color="#B5B6B7"/>
<stop offset="0.55" stop-color="#BBBCBE"/>
<stop offset="1" stop-color="#BDBEC0"/>
</linearGradient>
<linearGradient id="paint8_linear_3_179" x1="131.087" y1="121.428" x2="71.1235" y2="70.2124" gradientUnits="userSpaceOnUse">
<stop stop-color="#BDBEC0"/>
<stop offset="0.05" stop-color="#CACBCD"/>
<stop offset="0.15" stop-color="#DBDCDC"/>
<stop offset="0.26" stop-color="#E7E7E8"/>
<stop offset="0.43" stop-color="#EEEEEE"/>
<stop offset="0.86" stop-color="#F0F0F0"/>
<stop offset="0.93" stop-color="#EEEEEE"/>
<stop offset="0.96" stop-color="#E7E8E8"/>
<stop offset="0.98" stop-color="#DCDCDD"/>
<stop offset="0.99" stop-color="#CBCCCD"/>
<stop offset="1" stop-color="#BDBEC0"/>
</linearGradient>
<linearGradient id="paint9_linear_3_179" x1="75.5195" y1="194.073" x2="53.4921" y2="175.259" gradientUnits="userSpaceOnUse">
<stop stop-color="#625F5F"/>
<stop offset="0.02" stop-color="#6C6A6A"/>
<stop offset="0.09" stop-color="#858485"/>
<stop offset="0.17" stop-color="#9A999B"/>
<stop offset="0.27" stop-color="#AAAAAC"/>
<stop offset="0.38" stop-color="#B5B6B7"/>
<stop offset="0.55" stop-color="#BBBCBE"/>
<stop offset="1" stop-color="#BDBEC0"/>
</linearGradient>
<linearGradient id="paint10_linear_3_179" x1="73.3729" y1="192.239" x2="53.4921" y2="175.259" gradientUnits="userSpaceOnUse">
<stop stop-color="#BDBEC0"/>
<stop offset="0.05" stop-color="#CACBCD"/>
<stop offset="0.15" stop-color="#DBDCDC"/>
<stop offset="0.26" stop-color="#E7E7E8"/>
<stop offset="0.43" stop-color="#EEEEEE"/>
<stop offset="0.86" stop-color="#F0F0F0"/>
<stop offset="0.93" stop-color="#EEEEEE"/>
<stop offset="0.96" stop-color="#E7E8E8"/>
<stop offset="0.98" stop-color="#DCDCDD"/>
<stop offset="0.99" stop-color="#CBCCCD"/>
<stop offset="1" stop-color="#BDBEC0"/>
</linearGradient>
<linearGradient id="paint11_linear_3_179" x1="179.151" y1="134.832" x2="169.101" y2="126.248" gradientUnits="userSpaceOnUse">
<stop stop-color="#787575"/>
<stop offset="0.49" stop-color="#E8E7E7"/>
<stop offset="0.56" stop-color="#E2E1E1"/>
<stop offset="0.66" stop-color="#D0CFCF"/>
<stop offset="0.77" stop-color="#B3B1B1"/>
<stop offset="0.89" stop-color="#8B8888"/>
<stop offset="1" stop-color="#625F5F"/>
</linearGradient>
<linearGradient id="paint12_linear_3_179" x1="182.41" y1="130.194" x2="173.167" y2="122.299" gradientUnits="userSpaceOnUse">
<stop stop-color="#949292"/>
<stop offset="0.49" stop-color="#E8E7E7"/>
<stop offset="0.59" stop-color="#E2E1E1"/>
<stop offset="0.73" stop-color="#D0CFCF"/>
<stop offset="0.89" stop-color="#B3B1B1"/>
<stop offset="1" stop-color="#9B9999"/>
</linearGradient>
<linearGradient id="paint13_linear_3_179" x1="181.703" y1="131.845" x2="171.652" y2="123.26" gradientUnits="userSpaceOnUse">
<stop stop-color="#989696"/>
<stop offset="0.49" stop-color="#E8E7E7"/>
</linearGradient>
<linearGradient id="paint14_linear_3_179" x1="174.305" y1="180.693" x2="174.791" y2="181.108" gradientUnits="userSpaceOnUse">
<stop stop-color="#625F5F"/>
<stop offset="0.02" stop-color="#6C6A6A"/>
<stop offset="0.09" stop-color="#858485"/>
<stop offset="0.17" stop-color="#9A999B"/>
<stop offset="0.27" stop-color="#AAAAAC"/>
<stop offset="0.38" stop-color="#B5B6B7"/>
<stop offset="0.55" stop-color="#BBBCBE"/>
<stop offset="1" stop-color="#BDBEC0"/>
</linearGradient>
<linearGradient id="paint15_linear_3_179" x1="163.029" y1="163.58" x2="163.515" y2="163.995" gradientUnits="userSpaceOnUse">
<stop stop-color="#625F5F"/>
<stop offset="0.02" stop-color="#6C6A6A"/>
<stop offset="0.09" stop-color="#858485"/>
<stop offset="0.17" stop-color="#9A999B"/>
<stop offset="0.27" stop-color="#AAAAAC"/>
<stop offset="0.38" stop-color="#B5B6B7"/>
<stop offset="0.55" stop-color="#BBBCBE"/>
<stop offset="1" stop-color="#BDBEC0"/>
</linearGradient>
<linearGradient id="paint16_linear_3_179" x1="151.475" y1="149.636" x2="151.961" y2="150.052" gradientUnits="userSpaceOnUse">
<stop stop-color="#625F5F"/>
<stop offset="0.02" stop-color="#6C6A6A"/>
<stop offset="0.09" stop-color="#858485"/>
<stop offset="0.17" stop-color="#9A999B"/>
<stop offset="0.27" stop-color="#AAAAAC"/>
<stop offset="0.38" stop-color="#B5B6B7"/>
<stop offset="0.55" stop-color="#BBBCBE"/>
<stop offset="1" stop-color="#BDBEC0"/>
</linearGradient>
<linearGradient id="paint17_linear_3_179" x1="144.426" y1="134.287" x2="204.39" y2="185.503" gradientUnits="userSpaceOnUse">
<stop stop-color="#625F5F"/>
<stop offset="0.02" stop-color="#6C6A6A"/>
<stop offset="0.09" stop-color="#858485"/>
<stop offset="0.17" stop-color="#9A999B"/>
<stop offset="0.27" stop-color="#AAAAAC"/>
<stop offset="0.38" stop-color="#B5B6B7"/>
<stop offset="0.55" stop-color="#BBBCBE"/>
<stop offset="1" stop-color="#BDBEC0"/>
</linearGradient>
<linearGradient id="paint18_linear_3_179" x1="145.15" y1="133.44" x2="205.113" y2="184.656" gradientUnits="userSpaceOnUse">
<stop stop-color="#BDBEC0"/>
<stop offset="0.05" stop-color="#CACBCD"/>
<stop offset="0.15" stop-color="#DBDCDC"/>
<stop offset="0.26" stop-color="#E7E7E8"/>
<stop offset="0.43" stop-color="#EEEEEE"/>
<stop offset="0.86" stop-color="#F0F0F0"/>
<stop offset="0.93" stop-color="#EEEEEE"/>
<stop offset="0.96" stop-color="#E7E8E8"/>
<stop offset="0.98" stop-color="#DCDCDD"/>
<stop offset="0.99" stop-color="#CBCCCD"/>
<stop offset="1" stop-color="#BDBEC0"/>
</linearGradient>
<linearGradient id="paint19_linear_3_179" x1="82.0896" y1="199.684" x2="104.112" y2="218.494" gradientUnits="userSpaceOnUse">
<stop stop-color="#625F5F"/>
<stop offset="0.02" stop-color="#6C6A6A"/>
<stop offset="0.09" stop-color="#858485"/>
<stop offset="0.17" stop-color="#9A999B"/>
<stop offset="0.27" stop-color="#AAAAAC"/>
<stop offset="0.38" stop-color="#B5B6B7"/>
<stop offset="0.55" stop-color="#BBBCBE"/>
<stop offset="1" stop-color="#BDBEC0"/>
</linearGradient>
<linearGradient id="paint20_linear_3_179" x1="84.2361" y1="201.518" x2="104.112" y2="218.494" gradientUnits="userSpaceOnUse">
<stop stop-color="#BDBEC0"/>
<stop offset="0.05" stop-color="#CACBCD"/>
<stop offset="0.15" stop-color="#DBDCDC"/>
<stop offset="0.26" stop-color="#E7E7E8"/>
<stop offset="0.43" stop-color="#EEEEEE"/>
<stop offset="0.86" stop-color="#F0F0F0"/>
<stop offset="0.93" stop-color="#EEEEEE"/>
<stop offset="0.96" stop-color="#E7E8E8"/>
<stop offset="0.98" stop-color="#DCDCDD"/>
<stop offset="0.99" stop-color="#CBCCCD"/>
<stop offset="1" stop-color="#BDBEC0"/>
</linearGradient>
<clipPath id="clip0_3_179">
<rect width="181" height="197" fill="white" transform="translate(127.945) rotate(40.5013)"/>
</clipPath>
</defs>
</svg>
